
<svg width="80" height="80" viewBox="0 0 80 80" fill="none" xmlns="http://www.w3.org/2000/svg">
  <rect width="80" height="80" rx="16" fill="url(#gradient1)"/>
  <defs>
    <linearGradient id="gradient1" x1="0%" y1="0%" x2="100%" y2="100%">
      <stop offset="0%" style="stop-color:#1c3ed3;stop-opacity:1" />
      <stop offset="100%" style="stop-color:#2c5df5;stop-opacity:1" />
    </linearGradient>
  </defs>
  
  <!-- Brain/Neural network representation -->
  <circle cx="30" cy="25" r="3" fill="white" opacity="0.9"/>
  <circle cx="50" cy="25" r="3" fill="white" opacity="0.9"/>
  <circle cx="25" cy="40" r="3" fill="white" opacity="0.9"/>
  <circle cx="40" cy="40" r="4" fill="white"/>
  <circle cx="55" cy="40" r="3" fill="white" opacity="0.9"/>
  <circle cx="30" cy="55" r="3" fill="white" opacity="0.9"/>
  <circle cx="50" cy="55" r="3" fill="white" opacity="0.9"/>
  
  <!-- Connections -->
  <path d="M30 25 L40 40 L50 25" stroke="white" stroke-width="1.5" fill="none" opacity="0.7"/>
  <path d="M25 40 L40 40 L55 40" stroke="white" stroke-width="1.5" fill="none" opacity="0.7"/>
  <path d="M30 55 L40 40 L50 55" stroke="white" stroke-width="1.5" fill="none" opacity="0.7"/>
  
  <!-- AI chip representation -->
  <rect x="35" y="15" width="10" height="2" rx="1" fill="white" opacity="0.6"/>
  <rect x="35" y="63" width="10" height="2" rx="1" fill="white" opacity="0.6"/>
  <rect x="15" y="35" width="2" height="10" rx="1" fill="white" opacity="0.6"/>
  <rect x="63" y="35" width="2" height="10" rx="1" fill="white" opacity="0.6"/>
</svg>
