
<svg width="80" height="80" viewBox="0 0 80 80" fill="none" xmlns="http://www.w3.org/2000/svg">
  <rect width="80" height="80" rx="16" fill="url(#gradient2)"/>
  <defs>
    <linearGradient id="gradient2" x1="0%" y1="0%" x2="100%" y2="100%">
      <stop offset="0%" style="stop-color:#1c3ed3;stop-opacity:1" />
      <stop offset="100%" style="stop-color:#2c5df5;stop-opacity:1" />
    </linearGradient>
  </defs>
  
  <!-- Cloud infrastructure layers -->
  <rect x="20" y="22" width="40" height="4" rx="2" fill="white" opacity="0.9"/>
  <rect x="20" y="30" width="40" height="4" rx="2" fill="white" opacity="0.8"/>
  <rect x="20" y="38" width="40" height="4" rx="2" fill="white" opacity="0.9"/>
  <rect x="20" y="46" width="40" height="4" rx="2" fill="white" opacity="0.8"/>
  <rect x="20" y="54" width="40" height="4" rx="2" fill="white" opacity="0.9"/>
  
  <!-- Connection nodes -->
  <circle cx="25" cy="24" r="1.5" fill="#43454d"/>
  <circle cx="35" cy="32" r="1.5" fill="#43454d"/>
  <circle cx="45" cy="40" r="1.5" fill="#43454d"/>
  <circle cx="55" cy="48" r="1.5" fill="#43454d"/>
  <circle cx="35" cy="56" r="1.5" fill="#43454d"/>
  
  <!-- Platform connectors -->
  <path d="M15 16 Q20 12 25 16 Q30 12 35 16 Q40 12 45 16 Q50 12 55 16 Q60 12 65 16" 
        stroke="white" stroke-width="2" fill="none" opacity="0.7"/>
  <path d="M15 64 Q20 68 25 64 Q30 68 35 64 Q40 68 45 64 Q50 68 55 64 Q60 68 65 64" 
        stroke="white" stroke-width="2" fill="none" opacity="0.7"/>
</svg>
