
<svg width="80" height="80" viewBox="0 0 80 80" fill="none" xmlns="http://www.w3.org/2000/svg">
  <rect width="80" height="80" rx="12" fill="#1c3ed3"/>
  <rect x="20" y="15" width="40" height="50" rx="4" fill="white"/>
  <rect x="25" y="20" width="30" height="3" rx="1.5" fill="#1c3ed3"/>
  <rect x="25" y="26" width="20" height="2" rx="1" fill="#43454d"/>
  <rect x="25" y="30" width="25" height="2" rx="1" fill="#43454d"/>
  <rect x="25" y="34" width="15" height="2" rx="1" fill="#43454d"/>
  <rect x="25" y="38" width="22" height="2" rx="1" fill="#43454d"/>
  <rect x="25" y="42" width="18" height="2" rx="1" fill="#43454d"/>
  <rect x="25" y="46" width="25" height="2" rx="1" fill="#43454d"/>
  <rect x="25" y="50" width="12" height="2" rx="1" fill="#43454d"/>
  <rect x="25" y="54" width="20" height="2" rx="1" fill="#43454d"/>
  <path d="M30 58 L35 63 L50 58" stroke="#1c3ed3" stroke-width="2" fill="none"/>
</svg>
