
<svg width="80" height="80" viewBox="0 0 80 80" fill="none" xmlns="http://www.w3.org/2000/svg">
  <rect width="80" height="80" rx="16" fill="url(#gradient3)"/>
  <defs>
    <linearGradient id="gradient3" x1="0%" y1="0%" x2="100%" y2="100%">
      <stop offset="0%" style="stop-color:#1c3ed3;stop-opacity:1" />
      <stop offset="100%" style="stop-color:#2c5df5;stop-opacity:1" />
    </linearGradient>
  </defs>
  
  <!-- Code editor window -->
  <rect x="18" y="16" width="44" height="48" rx="6" fill="white"/>
  
  <!-- Window header -->
  <rect x="18" y="16" width="44" height="8" rx="6" fill="#f8f9fa"/>
  <rect x="18" y="22" width="44" height="2" fill="#e9ecef"/>
  
  <!-- Window controls -->
  <circle cx="25" cy="20" r="1.5" fill="#ff5f56"/>
  <circle cx="30" cy="20" r="1.5" fill="#ffbd2e"/>
  <circle cx="35" cy="20" r="1.5" fill="#27ca3f"/>
  
  <!-- Code lines -->
  <rect x="22" y="28" width="20" height="2" rx="1" fill="#1c3ed3" opacity="0.8"/>
  <rect x="22" y="32" width="28" height="2" rx="1" fill="#43454d" opacity="0.6"/>
  <rect x="26" y="36" width="24" height="2" rx="1" fill="#43454d" opacity="0.6"/>
  <rect x="22" y="40" width="16" height="2" rx="1" fill="#1c3ed3" opacity="0.8"/>
  <rect x="22" y="44" width="32" height="2" rx="1" fill="#43454d" opacity="0.6"/>
  <rect x="26" y="48" width="18" height="2" rx="1" fill="#43454d" opacity="0.6"/>
  <rect x="22" y="52" width="26" height="2" rx="1" fill="#1c3ed3" opacity="0.8"/>
  <rect x="26" y="56" width="22" height="2" rx="1" fill="#43454d" opacity="0.6"/>
  
  <!-- Cursor -->
  <rect x="48" y="52" width="1" height="4" fill="#1c3ed3"/>
</svg>
